<svg xmlns="http://www.w3.org/2000/svg" viewBox="0 0 48 48" fill="none">
  <!-- Canada - Red maple leaf on light circle -->
  <circle cx="24" cy="24" r="22" fill="#f5f5f5" stroke="#e0e0e0" stroke-width="1"/>
  <!-- Maple leaf - Canadian flag style -->
  <path d="M24 6
           L25.5 11 L28 10 L27 13 L31 13 L29 16 L32 17 L28 19
           L31 20 L28 22 L32 24 L28 25 L30 28 L27 27 L28 31
           L25 29 L24 42 L23 29 L20 31 L21 27 L18 28 L20 25
           L16 24 L20 22 L17 20 L20 19 L16 17 L19 16 L17 13
           L21 13 L20 10 L22.5 11 Z"
        fill="#DC2626"/>
</svg>
